#N canvas 707 162 1213 1029 12;
#X floatatom 422 74 5 0 10000 1 frequency frequency -, f 5;
#X obj 529 177 phasor~;
#X obj 367 572 cos~;
#X obj 754 551 cos~;
#X obj 754 489 +~;
#X floatatom 777 417 5 0 360 1 phase phase -, f 5;
#X obj 777 449 / 360;
#X obj 361 223 phasor~;
#X obj 166 488 -~ 0.5;
#X obj 754 612 *~;
#X floatatom 396 145 5 1 40 1 loops loops -, f 5;
#X obj 361 175 /;
#X obj 962 581 cos~;
#X obj 998 321 +~;
#X floatatom 1016 254 5 0 360 2 phase phase -, f 5;
#X obj 166 528 *~ 2;
#X floatatom 300 534 5 1 20 2 stretch stretch -, f 5;
#X obj 367 661 /~;
#X obj 166 612 *~;
#X obj 166 661 /~;
#X obj 349 710 +~;
#X obj 262 605 + 1;
#X obj 1014 541 tgl 15 0 empty step3 mushroom 16 5 0 10 #00fc04 #000000
#000000 0 1;
#X obj 262 493 tgl 13 0 empty step2 cylinder 18 5 0 10 #00fc04 #000000
#000000 0 1;
#X obj 962 544 *~;
#X floatatom 937 324 5 0 1 2 cap cap -, f 5;
#X obj 979 401 *~;
#X obj 390 913 pddp/dsp;
#X obj 962 496 +~;
#X obj 865 416 -~ 1;
#X floatatom 932 416 5 -0.25 0.25 2 stem stem -, f 5;
#X obj 914 450 *~;
#X obj 396 177 bng 15 250 50 0 empty empty empty 17 7 0 10 #fcfcfc
#000000 #000000;
#X obj 571 481 phasor~;
#X obj 571 519 cos~;
#X obj 553 569 *~;
#X obj 570 373 +;
#X floatatom 604 342 5 0 100 2 wiggle wiggle -, f 5;
#X obj 604 375 bng 15 250 50 0 empty empty empty 17 7 0 10 #fcfcfc
#000000 #000000;
#X obj 1016 286 / 360;
#X floatatom 607 412 5 1 7 2 mushrooms mushrooms -, f 5;
#X obj 553 612 *~;
#X obj 654 491 tgl 15 0 empty step4 wiggle 17 4 0 10 #00fc04 #000000
#000000 0 1;
#X obj 697 56 loadbang;
#X obj 529 215 send~ baseSaw;
#X obj 754 379 r~ baseSaw;
#X obj 367 533 r~ baseSaw;
#X obj 361 264 send~ vertSaw;
#X obj 865 263 r~ vertSaw;
#X obj 472 482 r~ vertSaw;
#X obj 166 446 r~ vertSaw;
#X text 483 805 horizontal;
#X text 255 770 vertical;
#X obj 254 264 send vertFreq;
#X obj 493 330 r vertFreq;
#X obj 262 567 *;
#X obj 300 571 bng 15 250 50 0 empty empty empty 17 7 0 10 #fcfcfc
#000000 #000000;
#X obj 553 710 +~;
#X obj 570 441 /;
#X obj 607 444 bng 15 250 50 0 empty empty empty 17 7 0 10 #fcfcfc
#000000 #000000;
#X obj 349 771 *~ 0.9;
#X obj 468 771 *~ 0.9;
#X obj 654 602 + 1;
#X obj 754 661 /~;
#X floatatom 690 532 5 1 10 2 space space -, f 5;
#X obj 654 566 *;
#X obj 690 568 bng 15 250 50 0 empty empty empty 17 7 0 10 #fcfcfc
#000000 #000000;
#X obj 553 661 /~;
#X obj 865 360 expr~ $v1 > $v2;
#X msg 697 102 startup \; frequency 5000 \; phase 90 \; cap 0.74 \;
stem 0.23 \; loops 60 \; stretch 19 \; step2 1 \; step3 1 \; step4
1 \; mushrooms 3 \; space 3 \; wiggle 2 \;;
#X obj 348 800 *~ -1;
#X obj 388 853 dac~ 1 2;
#X connect 0 0 1 0;
#X connect 0 0 11 0;
#X connect 1 0 44 0;
#X connect 2 0 17 0;
#X connect 3 0 9 0;
#X connect 4 0 3 0;
#X connect 5 0 6 0;
#X connect 6 0 4 1;
#X connect 7 0 47 0;
#X connect 8 0 15 0;
#X connect 9 0 63 0;
#X connect 10 0 11 1;
#X connect 10 0 32 0;
#X connect 11 0 53 0;
#X connect 11 0 7 0;
#X connect 12 0 9 1;
#X connect 13 0 26 1;
#X connect 14 0 39 0;
#X connect 15 0 18 0;
#X connect 16 0 56 0;
#X connect 16 0 55 1;
#X connect 17 0 20 1;
#X connect 18 0 19 0;
#X connect 19 0 20 0;
#X connect 20 0 60 0;
#X connect 21 0 17 1;
#X connect 21 0 19 1;
#X connect 22 0 24 1;
#X connect 23 0 55 0;
#X connect 24 0 12 0;
#X connect 25 0 68 1;
#X connect 26 0 28 1;
#X connect 28 0 24 0;
#X connect 29 0 31 0;
#X connect 30 0 31 1;
#X connect 31 0 28 0;
#X connect 32 0 11 0;
#X connect 33 0 34 0;
#X connect 34 0 35 1;
#X connect 35 0 41 0;
#X connect 36 0 58 0;
#X connect 37 0 36 1;
#X connect 37 0 38 0;
#X connect 38 0 36 0;
#X connect 39 0 13 1;
#X connect 40 0 58 1;
#X connect 40 0 59 0;
#X connect 41 0 67 0;
#X connect 42 0 65 0;
#X connect 43 0 69 0;
#X connect 45 0 4 0;
#X connect 46 0 2 0;
#X connect 48 0 13 0;
#X connect 48 0 68 0;
#X connect 49 0 35 0;
#X connect 50 0 8 0;
#X connect 54 0 36 0;
#X connect 55 0 21 0;
#X connect 55 0 18 1;
#X connect 56 0 55 0;
#X connect 57 0 61 0;
#X connect 58 0 33 0;
#X connect 59 0 58 0;
#X connect 60 0 70 0;
#X connect 61 0 71 1;
#X connect 62 0 63 1;
#X connect 62 0 67 1;
#X connect 63 0 57 1;
#X connect 64 0 65 1;
#X connect 64 0 66 0;
#X connect 65 0 62 0;
#X connect 65 0 41 1;
#X connect 66 0 65 0;
#X connect 67 0 57 0;
#X connect 68 0 26 0;
#X connect 68 0 29 0;
#X connect 70 0 71 0;
